<?xml version="1.0" standalone="no"?>
<!DOCTYPE svg PUBLIC "-//W3C//DTD SVG 20010904//EN"
 "http://www.w3.org/TR/2001/REC-SVG-20010904/DTD/svg10.dtd">
<svg version="1.0" xmlns="http://www.w3.org/2000/svg"
 width="526.000000pt" height="600.000000pt" viewBox="0 0 526.000000 600.000000"
 preserveAspectRatio="xMidYMid meet">

<g transform="translate(0.000000,600.000000) scale(0.100000,-0.100000)"
fill="#fff" stroke="none">
<path d="M2349 5836 c-231 -132 -745 -427 -2201 -1261 l-38 -21 264 -152 c144
-84 267 -152 272 -152 5 0 59 28 119 63 61 35 283 163 495 284 212 122 391
223 396 225 16 5 99 -74 606 -580 258 -256 465 -469 460 -473 -4 -4 -144 -87
-312 -185 -168 -97 -306 -178 -308 -179 -1 -1 119 -72 268 -158 l270 -156 420
242 c231 133 420 244 419 247 0 3 -202 223 -449 490 -247 266 -447 486 -446
487 1 2 333 -137 737 -308 404 -171 742 -314 751 -316 20 -6 1092 608 1080
618 -16 16 -510 299 -521 299 -6 0 -172 -93 -368 -206 -224 -128 -364 -203
-375 -200 -35 9 -1658 700 -1658 706 0 3 209 125 465 270 255 146 464 268 465
272 0 5 -197 120 -521 304 -3 2 -133 -70 -290 -160z"/>
<path d="M0 2937 l0 -1495 290 -160 290 -160 0 474 0 474 683 -512 682 -513 5
-359 5 -358 280 -162 280 -162 6 270 c4 149 7 449 8 667 l1 395 -262 171
c-826 536 -1079 703 -1067 703 8 0 169 -29 359 -64 717 -134 947 -176 958
-176 9 0 12 117 10 502 l-3 502 -283 164 c-156 90 -285 162 -286 161 -2 -2 -6
-159 -10 -349 -4 -189 -9 -346 -12 -349 -6 -6 -1336 279 -1346 288 -5 4 -9
278 -10 610 l-3 603 -275 160 c-151 88 -281 162 -287 165 -10 4 -13 -298 -13
-1490z"/>
<path d="M4990 4265 l-265 -154 -3 -1080 -2 -1081 -716 658 c-394 361 -720
658 -724 660 -5 2 -128 -66 -274 -150 l-266 -153 0 -1479 c0 -1178 3 -1477 13
-1473 6 2 127 70 267 151 l255 146 5 1056 5 1055 719 -633 c396 -348 725 -632
732 -632 6 1 127 68 268 150 l256 149 0 1482 c0 816 -1 1483 -2 1482 -2 0
-122 -69 -268 -154z"/>
</g>
</svg>
